<svg width="811" height="231" viewBox="0 0 811 231" fill="none" xmlns="http://www.w3.org/2000/svg">
<path d="M232.776 109.088V180H214.728V171.04C212.424 174.112 209.395 176.544 205.64 178.336C201.971 180.043 197.96 180.896 193.608 180.896C188.061 180.896 183.155 179.744 178.888 177.44C174.621 175.051 171.251 171.595 168.776 167.072C166.387 162.464 165.192 157.003 165.192 150.688V109.088H183.112V148.128C183.112 153.76 184.52 158.112 187.336 161.184C190.152 164.171 193.992 165.664 198.856 165.664C203.805 165.664 207.688 164.171 210.504 161.184C213.32 158.112 214.728 153.76 214.728 148.128V109.088H232.776ZM245.849 144.288C245.849 137.12 247.257 130.763 250.073 125.216C252.974 119.669 256.857 115.403 261.721 112.416C266.67 109.429 272.174 107.936 278.233 107.936C283.524 107.936 288.132 109.003 292.057 111.136C296.068 113.269 299.268 115.957 301.657 119.2V109.088H319.705V180H301.657V169.632C299.353 172.96 296.153 175.733 292.057 177.952C288.046 180.085 283.396 181.152 278.105 181.152C272.132 181.152 266.67 179.616 261.721 176.544C256.857 173.472 252.974 169.163 250.073 163.616C247.257 157.984 245.849 151.541 245.849 144.288ZM301.657 144.544C301.657 140.192 300.804 136.48 299.097 133.408C297.39 130.251 295.086 127.861 292.185 126.24C289.284 124.533 286.169 123.68 282.841 123.68C279.513 123.68 276.441 124.491 273.625 126.112C270.809 127.733 268.505 130.123 266.713 133.28C265.006 136.352 264.153 140.021 264.153 144.288C264.153 148.555 265.006 152.309 266.713 155.552C268.505 158.709 270.809 161.141 273.625 162.848C276.526 164.555 279.598 165.408 282.841 165.408C286.169 165.408 289.284 164.597 292.185 162.976C295.086 161.269 297.39 158.88 299.097 155.808C300.804 152.651 301.657 148.896 301.657 144.544ZM355.127 85.28V180H337.207V85.28H355.127ZM381.92 100.64C378.763 100.64 376.117 99.6587 373.984 97.696C371.936 95.648 370.912 93.1307 370.912 90.144C370.912 87.1573 371.936 84.6827 373.984 82.72C376.117 80.672 378.763 79.648 381.92 79.648C385.077 79.648 387.68 80.672 389.728 82.72C391.861 84.6827 392.928 87.1573 392.928 90.144C392.928 93.1307 391.861 95.648 389.728 97.696C387.68 99.6587 385.077 100.64 381.92 100.64ZM390.752 109.088V180H372.832V109.088H390.752ZM429.321 123.808V158.112C429.321 160.501 429.876 162.251 430.985 163.36C432.18 164.384 434.142 164.896 436.873 164.896H445.193V180H433.929C418.825 180 411.273 172.661 411.273 157.984V123.808H402.825V109.088H411.273V91.552H429.321V109.088H445.193V123.808H429.321ZM525.922 109.088L482.018 213.536H462.946L478.306 178.208L449.89 109.088H469.986L488.29 158.624L506.85 109.088H525.922Z" fill="#F33A3A"/>
<path d="M663.49 90.656V180H645.57V121.888L621.634 180H608.066L584.002 121.888V180H566.082V90.656H586.434L614.85 157.088L643.266 90.656H663.49ZM676.599 144.288C676.599 137.12 678.007 130.763 680.823 125.216C683.724 119.669 687.607 115.403 692.471 112.416C697.42 109.429 702.924 107.936 708.983 107.936C714.274 107.936 718.882 109.003 722.807 111.136C726.818 113.269 730.018 115.957 732.407 119.2V109.088H750.455V180H732.407V169.632C730.103 172.96 726.903 175.733 722.807 177.952C718.796 180.085 714.146 181.152 708.855 181.152C702.882 181.152 697.42 179.616 692.471 176.544C687.607 173.472 683.724 169.163 680.823 163.616C678.007 157.984 676.599 151.541 676.599 144.288ZM732.407 144.544C732.407 140.192 731.554 136.48 729.847 133.408C728.14 130.251 725.836 127.861 722.935 126.24C720.034 124.533 716.919 123.68 713.591 123.68C710.263 123.68 707.191 124.491 704.375 126.112C701.559 127.733 699.255 130.123 697.463 133.28C695.756 136.352 694.903 140.021 694.903 144.288C694.903 148.555 695.756 152.309 697.463 155.552C699.255 158.709 701.559 161.141 704.375 162.848C707.276 164.555 710.348 165.408 713.591 165.408C716.919 165.408 720.034 164.597 722.935 162.976C725.836 161.269 728.14 158.88 729.847 155.808C731.554 152.651 732.407 148.896 732.407 144.544ZM785.877 120.096C788.181 116.341 791.168 113.397 794.837 111.264C798.592 109.131 802.858 108.064 807.637 108.064V126.88H802.901C797.269 126.88 793.002 128.203 790.101 130.848C787.285 133.493 785.877 138.101 785.877 144.672V180H767.957V109.088H785.877V120.096Z" fill="#41C13F"/>
<path d="M37.0647 42.7023C51.255 43.4907 63.343 56.3889 67.6133 62.7395H72.212C69.8469 52.7538 50.6418 39.527 41.3349 34.1619C33.9989 36.6802 22.8744 41.914 37.0647 42.7023Z" fill="#F33A3A"/>
<path d="M144.531 130.734C144.531 170.645 112.176 203 72.2654 203C32.3543 203 0 170.645 0 130.734C0 90.8233 32.3543 58.469 72.2654 58.469C112.176 58.469 144.531 90.8233 144.531 130.734ZM22.1844 130.734C22.1844 158.393 44.6064 180.815 72.2654 180.815C99.9244 180.815 122.346 158.393 122.346 130.734C122.346 103.075 99.9244 80.6534 72.2654 80.6534C44.6064 80.6534 22.1844 103.075 22.1844 130.734Z" fill="#F33A3A"/>
<path d="M111.683 162.729C93.8136 154.057 72.7033 157.145 64.3818 159.773C90.9229 189.204 112.887 200.285 120.552 202.146C128.216 204.008 167.524 202.146 167.524 202.146C148.801 197.548 134.019 173.569 111.683 162.729Z" fill="#2ED12B"/>
<path d="M71.4814 32.1909C68.8118 41.1667 71.4814 56.1699 71.4814 56.1699C71.4814 56.1699 97.0254 51.1671 105.972 39.089C115.161 26.6828 111.884 0 111.884 0C111.884 0 94.8871 3.75869 86.5915 10.5113C78.588 17.0262 74.4235 22.2993 71.4814 32.1909Z" fill="url(#paint0_linear_60_13)"/>
<defs>
<linearGradient id="paint0_linear_60_13" x1="91.3736" y1="0" x2="91.3176" y2="56.4984" gradientUnits="userSpaceOnUse">
<stop stop-color="#2ED12B"/>
<stop offset="1" stop-color="#41C13F"/>
</linearGradient>
</defs>
</svg>
